<?xml version="1.0" encoding="utf-8"?>
<!-- Generator: Adobe Illustrator 25.4.1, SVG Export Plug-In . SVG Version: 6.00 Build 0)  -->
<svg version="1.1" id="Layer_1" xmlns="http://www.w3.org/2000/svg" xmlns:xlink="http://www.w3.org/1999/xlink" x="0px" y="0px"
	 viewBox="0 0 2812.2 1417.3" style="enable-background:new 0 0 2812.2 1417.3;" xml:space="preserve">
<style type="text/css">
	.st0{fill:#FFFFFF;}
</style>
<path class="st0" d="M1418.6,467c-1.2,18.1-6.2,31.3-23.1,41.3c-20.9,8.1-28.3,5.6-47.4,10.6c-10.6,1.3-16.1,6.6-16.9,11.3
	c-1.9,11.4,47.2,14,56,14.7c30.9,4.2,34,37.7,27.2,58.1c-6.8,20.4-59.1,54.4-115.1,53.9s-107.3-24.6-132.4-80.1
	c-17.5-38.6-12.9-74.4,1.1-106.5c19.1-43.7,53.8-82.1,99.9-97.6c-56,41.3-84.3,88.4-84.3,144.4s53.9,103.6,98.9,109.4
	s104.7-13.6,116.2-26.7c11.5-13.1,5.2-23.6-12-28.8c-17.3-5.2-31.4-4.7-48.7-5.2c-17.1-0.5-25.4-13.9-25.3-29.3
	c0.2-27.2,16.8-37.1,42-39.7C1385.2,493.8,1398,494.3,1418.6,467z M1482.5,397.7c0,0,3.8,8.1-2.3,8.1c-6.1,0-23.5,0-16.7-8.1
	C1470.4,389.5,1476.4,378.7,1482.5,397.7z M1457.5,439.9c3-1.9,7.6-2.3,14.7,0.5c23.6,9.1,39.9,20.9,54.5,30
	c13.4,9.7-8.5,43-36.3,32.4c-15.2-5.8-29.8-25.5-34.9-40.5C1452.8,454.2,1452.3,446,1457.5,439.9z M1389.7,189.9
	c0,0,11.1-23.8,10.9,2.7c-0.6,60.6,32,115.8,95.3,173.4c10,9.1,16.3,10.9,5.4,32.7c-10.9,21.8-10.9,21.8-10.9,21.8
	s16.3,6.4,33.6,21.8c17.2,15.4,37.2,25.4,23.6,49.9c-13.6,24.5-28.1,41.8-59.9,39c-31.8-2.7-57.2-47.2-42.7-97.1l-19.9-15.4
	c0,0-5.5,27-27.1,43.2c-24.7,18.5-60.5,16-75.6-13.2c-13.1-25.3-6-62.1,7.4-76.3c0,0-6.4,48.1,28.1,67.2
	c22.7,14.9,42.8,7.1,50.3-5.2c11.2-18.4-0.2-27.2-5.5-46.1c-6-21.4-8.6-51.5,12.4-74.8c0,0-5.4,34.5,7.3,58.1
	c2.8,5.2,5.7,9.3,8.4,12.5c7.5,9,15.6,14.4,25,3.5c7.4-8.5,8.6-10.9,0.8-27.3c-1.3-2.8-2.9-5.8-4.9-8.9c-2.3-3.7-5.1-7.6-8.5-11.6
	c-16.4-19.6-40.4-54.5-48.7-77.6C1388.5,240.1,1383.2,212.5,1389.7,189.9z M1417,68.7c0,0-17,26.5-9.3,67.1
	c8.1,42.8,50.1,97.7,76.5,131.6c17.7,22.6,35.6,44.4,52.6,66.9c38.3,50.7,61.8,93.9,74.1,124.8c28.1,70.3,3.6,171-73.8,196.8
	c-29.8,9.9-75.4,13.8-138.7-10.2l19.7-24.1c56.2,17.2,115.9,32.5,164.2-18.5c37-49.8,23.5-107.6-4.5-160.2
	c-19-35.6-42.3-65.9-70.7-103.7c-19.6-26.1-35.8-46.9-49.6-65.8C1413,212.8,1364.1,139.7,1417,68.7z M1433,53.8
	c-16.7,77.9,24.6,146.9,76.1,215.3c41.9,55.7,95.3,116.1,120.3,181.3c13.2,34.2,18.6,71.8,6.1,112.4c0,0,30.9-44.5,18.5-106.3
	c-6.2-31-22.7-63.4-40.4-91.7c-35.5-56.7-80.9-105.1-119.5-159.1C1463.1,162.2,1439.1,116.2,1433,53.8z"/>
<path class="st0" d="M1544.6,875l-42.5,1.3c-0.8-22.9-2.7-45.8-2.3-69.1l0.8-84.3c-18.9,14.7-38.2,29-56.3,45l-0.8,109.3
	c-23.9,0.4-47.9,1.7-71.8,1.3l-51.7-0.4l-0.8-108l0.4-42.8c-17.4,15.6-35.9,29.8-55.6,41.5c0,55.7-1.2,111-1.2,166.9
	c0,38.1,0.8,76.7,6.9,114.4l9.6,7.4c22-15.2,43.6-31.2,66.4-45.1l-5-7.4l-7.7,3.9l-7.7-4.8c-3.1-10-5.4-19.9-5.4-30.3v-45.9
	c7.7-0.9,15.8-2.2,23.9-2.2h84.5l17,1.3c-0.4,16.5-4.6,129.1,15.8,129.1c12,0,59.8-42.9,72.9-52.9l-4.2-7.8l-9.6,4.3
	c-17.4-4.3-19.7-25.6-19.7-42c0-12.6,0.4-24.7,1.5-36.8C1517.2,906.6,1531.8,891.9,1544.6,875z"/>
<path class="st0" d="M824.4,950.6l-53.9,0.5H733c14.3-42.1,28.6-84.2,45.1-125.8C793.2,867.3,808.4,909.4,824.4,950.6z
	 M965.6,1044.2l-2.9-9.5c-69.1-0.5-103.6-258.7-145.3-305.1l-4.6-0.9l-57,30.3c-32,113.5-67.4,229.4-126.4,329.2
	c27.4-7.6,52.7-22.2,78.4-35.9c0.8-18.9,4.6-37.4,9.7-55.3c42.1,1.4,84.3-0.5,126-0.5c13.5,20.3,36.2,89.4,61.1,89.4
	C921.3,1085.9,952.1,1056.1,965.6,1044.2z M1081.4,1044.7c-3.8-109.7,3.4-222.3-9.7-331.1c-1.3-11.8-2.9-18.9-15.6-18.9
	c-15.6,0-63.2,43.5-77.9,55.8l3.4,8c5.5-3.3,11.4-4.7,17.3-4.7c26.5,0,23.2,203.9,23.2,237.9c0,32.6-0.8,65.3-1.7,97.4
	C1040.5,1074,1060.3,1058,1081.4,1044.7z M1800.5,1048c-17.3-37.4-93.5-208.1-128.9-208.1c-16.9,0-52.7,38.8-66.1,51.6l3.4,5.7
	c4.6-2.8,9.7-5.2,15.2-5.2c24,0,40,30.7,50.6,51.1c-41.3,9.5-116.3,39.3-116.3,97c0,37.4,41.7,50.1,68.7,50.1
	c26.1,0,53.9-34.1,71.2-53.9l-5.5-6.6c-9.7,5.2-20.6,7.6-31.2,7.6c-18.1,0-54.8-12.3-54.8-37.8c0-17.5,17.7-20.8,29.9-20.8
	c58.6,0,96.9,51.6,111.6,110.7L1800.5,1048z M2051.6,936.9c0-103.1-173.1-96-173.1-156.6c0-6.1,2.9-12.3,7.2-16.1l-7.2-5.7
	c-16,13.2-65.3,44.9-65.3,68.6c0,47.8,182.4,44.5,182.4,153.2c0,30.3-8.4,59.1-40,59.1c-38.8,0-65.7-44.9-65.7-85.1
	c0-16.1,4.2-32.2,11.4-45.9l-5.1-3.8c-32.4,17.5-60.7,46.4-60.7,89.9c0,46.4,36.7,94.6,79.2,94.6
	C1967.4,1089.2,2051.6,996,2051.6,936.9z M2171.7,1042.8c-1.3-55.3-2.9-110.2-4.6-165.1c-0.4-17,0.4-40.7-20.2-40.7
	c-5.5,0-68.2,48.2-79.2,55.3l5.9,9.9c4.6-2.4,10.1-4.7,15.6-4.7c22.3,0,21.9,70,21.9,86.6l0.8,105
	C2131.2,1073.1,2150.6,1056.5,2171.7,1042.8z M2178,781.7c-16-5.2-25.7-19.9-36.2-33.1c-18.1,12.8-35,27-50.6,43
	c5.9,16.1,16.9,28.4,33.3,28.4C2141.8,820,2164.5,793.6,2178,781.7z"/>
</svg>
